:SAMPLES-PER-SECOND 30
:FULLY-SPECIFIED
:DEGREES
151
root  -1.682157779 40.91666815 3.143177821 6.100997925 4.550003052 6.934997559
lowerback  17.18330002 -2.976140022 -9.4021101
upperback  6.087009907 -5.430709839 -1.070850015
thorax  -2.259330034 -2.769419909 5.133230209
lowerneck  -1.756100059 -5.073719978 -13.77589989
upperneck  10.83710003 -7.307879925 11.71730042
head  4.443120003 -3.634819984 5.550970078
lclavicle  0 -9.442270133e-015 7.951389973e-016
lhumerus  13.90880013 -21.19440079 75.71440125
lradius  2.001371647e-031 -2.909184691e-031 124.526001
lwrist  -7.062250077e-031 -8.827812596e-032 18.30489922
lhand  -1.496451383e-031 -27.76390076 20.11240005
lfingers  90 7.125020027 -90
lthumb  89.89689403 5.08795885 91.16245106
rclavicle  0 -9.442270133e-015 7.951389973e-016
rhumerus  -28.57279968 8.931460381 -76.84649658
rradius  -1.502085838e-031 3.195713093e-031 115.1750031
rwrist  7.062250077e-031 1.765562519e-031 -8.144860268
rhand  -7.920061211e-032 -33.2840004 9.303460121
rfingers  -90 -7.125020027 -90
rthumb  -92.93752616 -24.25625642 -97.11982154
rfemur  -40.38399887 15.06719971 -4.049389839
rtibia  -0 0 51.80599976
rfoot  -0 -0.7380160093 -16.09840012
rtoes  5.373923086 19.29304026 -105.8922705
lfemur  -13.48869991 -1.405850053 -11.53439999
ltibia  -0 0 41.1167984
lfoot  4.510234527e-032 -11.86289978 2.303630114
ltoes  -4.250644065 -19.5611806 -102.515957
152
root  -1.764893344 40.66400002 3.132777702 5.733001709 5.164001465 7.087005615
lowerback  17.11599922 -3.182739973 -9.572199821
upperback  6.029300213 -5.723120213 -1.055719972
thorax  -2.220390081 -2.915940046 5.285550117
lowerneck  -1.639490008 -5.079889774 -13.85540009
upperneck  10.56340027 -7.323480129 11.84899998
head  4.35021019 -3.643529892 5.607450008
lclavicle  0 -9.442270133e-015 7.951389973e-016
lhumerus  14.37139988 -21.23810005 75.89689636
lradius  2.007764406e-031 -2.904776433e-031 124.6520004
lwrist  -7.062250077e-031 -8.827812596e-032 18.80529976
lhand  -1.496451383e-031 -27.76390076 20.11240005
lfingers  90 7.125020027 -90
lthumb  89.89689403 5.08795885 91.16245106
rclavicle  0 -9.442270133e-015 7.951389973e-016
rhumerus  -28.19219971 8.867070198 -76.47850037
rradius  -1.547832608e-031 3.173808163e-031 115.9980011
rwrist  1.412450015e-030 -1.765562519e-031 -8.356659889
rhand  -7.920061211e-032 -33.2840004 9.303460121
rfingers  -90 -7.125020027 -90
rthumb  -92.93752616 -24.25625642 -97.11982154
rfemur  -39.80569839 16.63570023 -5.186769962
rtibia  -0 0 49.90980148
rfoot  -0 -0.5202370286 -14.64169979
rtoes  5.373923086 19.29304026 -105.8922705
lfemur  -12.34249973 -1.110849977 -11.19709969
ltibia  -0 0 42.45920181
lfoot  4.510008141e-032 -11.84920025 2.825220108
ltoes  -4.250644065 -19.5611806 -102.515957
153
root  -1.854519957 40.37688849 3.142199929 5.352996826 5.970993042 7.20300293
lowerback  16.88330078 -3.411910057 -9.654789925
upperback  6.025730133 -6.00951004 -1.054170012
thorax  -2.046689987 -3.067689896 5.355120182
lowerneck  -1.34721005 -5.153299809 -14.00839996
upperneck  10.03590012 -7.45457983 12.20950031
head  4.177609921 -3.708009958 5.746109962
lclavicle  0 -9.442270133e-015 7.951389973e-016
lhumerus  15.05560017 -21.70120049 75.97389984
lradius  2.007511048e-031 -2.904951537e-031 124.6470032
lwrist  -7.062250077e-031 -8.827812596e-032 18.55139923
lhand  -1.496451383e-031 -27.76390076 20.11240005
lfingers  90 7.125020027 -90
lthumb  89.89689403 5.08795885 91.16245106
rclavicle  0 -9.442270133e-015 7.951389973e-016
rhumerus  -27.81520081 8.5667696 -76.03410339
rradius  -1.596834112e-031 3.149438816e-031 116.8860016
rwrist  7.062250077e-031 -1.765562519e-031 -8.607930183
rhand  -7.920061211e-032 -33.2840004 9.303460121
rfingers  -90 -7.125020027 -90
rthumb  -92.93752616 -24.25625642 -97.11982154
rfemur  -39.14799881 18.2201004 -6.288839817
rtibia  -0 0 48.38119888
rfoot  -0 -2.022140026 -12.88099957
rtoes  5.373923086 19.29304026 -105.8922705
lfemur  -11.22579956 -1.039649963 -10.7198
ltibia  -0 0 43.6969986
lfoot  4.511843826e-032 -11.95979977 3.174420118
ltoes  -4.250644065 -19.5611806 -102.515957
154
root  -1.949622312 40.05622263 3.162066768 4.998001099 7.042007446 7.304000854
lowerback  16.57789993 -3.712690115 -9.69631958
upperback  5.98664999 -6.376969814 -1.04610002
thorax  -1.863000035 -3.258759975 5.413020134
lowerneck  -1.278460026 -5.244840145 -14.14789963
upperneck  9.879369736 -7.604969978 12.52880001
head  4.156010151 -3.777299881 5.863820076
lclavicle  0 -9.442270133e-015 7.951389973e-016
lhumerus  15.98499966 -22.21459961 75.92980194
lradius  2.003046739e-031 -2.908031602e-031 124.5589981
lwrist  -7.062250077e-031 -0 18.2961998
lhand  -1.496451383e-031 -27.76390076 20.11240005
lfingers  90 7.125020027 -90
lthumb  89.89689403 5.08795885 91.16245106
rclavicle  0 -9.442270133e-015 7.951389973e-016
rhumerus  -27.53980064 8.130189896 -75.51270294
rradius  -1.652808673e-031 3.120427459e-031 117.9089966
rwrist  7.062250077e-031 -1.765562519e-031 -9.079919815
rhand  -7.920061211e-032 -33.2840004 9.303460121
rfingers  -90 -7.125020027 -90
rthumb  -92.93752616 -24.25625642 -97.11982154
rfemur  -38.37820053 19.5401001 -7.181469917
rtibia  -0 0 47.49430084
rfoot  -0 -4.664150238 -11.24810028
rtoes  5.373923086 19.29304026 -105.8922705
lfemur  -10.1583004 -1.225620031 -10.12860012
ltibia  -0 0 44.7840004
lfoot  4.513102427e-032 -12.03499985 3.400569916
ltoes  -4.250644065 -19.5611806 -102.515957
155
root  -2.043348973 39.71399923 3.167289073 4.593002319 7.845001221 7.266998291
lowerback  16.34950066 -3.939150095 -9.753410339
upperback  5.907760143 -6.660719872 -0.9954419732
thorax  -1.76789999 -3.403719902 5.519330025
lowerneck  -1.32020998 -5.282859802 -14.20680046
upperneck  9.89179039 -7.663050175 12.63860035
head  4.181019783 -3.802870035 5.904170036
lclavicle  0 -9.442270133e-015 7.951389973e-016
lhumerus  16.9890995 -22.31220055 75.91560364
lradius  1.994918385e-031 -2.913613679e-031 124.3990021
lwrist  -7.062250077e-031 -8.827812596e-032 18.85589981
lhand  -1.496451383e-031 -27.76390076 20.11240005
lfingers  90 7.125020027 -90
lthumb  89.89689403 5.08795885 91.16245106
rclavicle  0 -9.442270133e-015 7.951389973e-016
rhumerus  -27.08790016 7.653339863 -74.88279724
rradius  -1.705721261e-031 3.091821311e-031 118.8850021
rwrist  7.062250077e-031 -1.765562519e-031 -9.614089966
rhand  -7.920061211e-032 -33.2840004 9.303460121
rfingers  -90 -7.125020027 -90
rthumb  -92.93752616 -24.25625642 -97.11982154
rfemur  -37.74119949 20.58499908 -7.648079872
rtibia  -0 0 47.3905983
rfoot  -0 -6.916120052 -12.6552
rtoes  5.373923086 19.29304026 -105.8922705
lfemur  -8.983469963 -1.444569945 -9.424670219
ltibia  -0 0 45.70190048
lfoot  4.51152385e-032 -11.9406004 3.841140032
ltoes  -4.250644065 -19.5611806 -102.515957
